<svg width="200" height="200" viewBox="0 0 200 200" xmlns="http://www.w3.org/2000/svg">
  <!-- Curved branch -->
  <path d="M10 190 Q50 150 80 110 Q110 70 150 50 Q170 35 195 15" fill="none" stroke="#90BE6D" stroke-width="2.5" stroke-opacity="0.25" stroke-linecap="round"/>
  
  <!-- Leaves on branch -->
  <path d="M80 110 C68 100 72 82 82 88 C88 100 80 110 80 110 Z" fill="#90BE6D" fill-opacity="0.22"/>
  <path d="M150 50 C140 42 143 28 152 33 C156 44 150 50 150 50 Z" fill="#90BE6D" fill-opacity="0.18"/>
  
  <!-- Scattered leaves -->
  <path d="M160 150 C148 160 148 178 160 185 C172 178 172 160 160 150 Z" fill="#90BE6D" fill-opacity="0.15"/>
  <path d="M40 50 C32 58 32 72 40 78 C48 72 48 58 40 50 Z" fill="#90BE6D" fill-opacity="0.12"/>
</svg>
